<svg width="33" height="32" viewBox="0 0 33 32" fill="none" xmlns="http://www.w3.org/2000/svg">
<rect x="0.5" width="32" height="32" rx="16" fill="#F8F6F8"/>
<path d="M21 12.25H19.5L19.0065 10.7694C18.8535 10.3097 18.4237 10 17.9392 10H15.0608C14.5763 10 14.1465 10.3097 13.9935 10.7694L13.5 12.25H12C10.5 12.25 9.75 13 9.75 14.5V20.5C9.75 22 10.5 22.75 12 22.75H21C22.5 22.75 23.25 22 23.25 20.5V14.5C23.25 13 22.5 12.25 21 12.25ZM16.5 19.75C15.2572 19.75 14.25 18.7428 14.25 17.5C14.25 16.2572 15.2572 15.25 16.5 15.25C17.7428 15.25 18.75 16.2572 18.75 17.5C18.75 18.7428 17.7428 19.75 16.5 19.75ZM20.625 15.625C20.211 15.625 19.875 15.289 19.875 14.875C19.875 14.461 20.211 14.125 20.625 14.125C21.039 14.125 21.375 14.461 21.375 14.875C21.375 15.289 21.039 15.625 20.625 15.625Z" fill="#3C3C43" fill-opacity="0.6"/>
</svg>
