<svg width="18" height="12" viewBox="0 0 18 12" fill="none" xmlns="http://www.w3.org/2000/svg">
<path fill-rule="evenodd" clip-rule="evenodd" d="M16.3387 0.667997H15.3387C14.7864 0.667997 14.3387 1.11571 14.3387 1.668V10.3347C14.3387 10.8869 14.7864 11.3347 15.3387 11.3347H16.3387C16.8909 11.3347 17.3387 10.8869 17.3387 10.3347V1.668C17.3387 1.11571 16.8909 0.667997 16.3387 0.667997ZM10.672 3.00133H11.672C12.2243 3.00133 12.672 3.44905 12.672 4.00133V10.3347C12.672 10.8869 12.2243 11.3347 11.672 11.3347H10.672C10.1197 11.3347 9.67199 10.8869 9.67199 10.3347V4.00133C9.67199 3.44905 10.1197 3.00133 10.672 3.00133ZM7.00532 5.33466H6.00532C5.45304 5.33466 5.00532 5.78238 5.00532 6.33466V10.3347C5.00532 10.8869 5.45304 11.3347 6.00532 11.3347H7.00532C7.5576 11.3347 8.00532 10.8869 8.00532 10.3347V6.33466C8.00532 5.78238 7.5576 5.33466 7.00532 5.33466ZM2.33865 7.33466H1.33865C0.786369 7.33466 0.338654 7.78238 0.338654 8.33466V10.3347C0.338654 10.8869 0.786369 11.3347 1.33865 11.3347H2.33865C2.89094 11.3347 3.33865 10.8869 3.33865 10.3347V8.33466C3.33865 7.78238 2.89094 7.33466 2.33865 7.33466Z" fill="white"/>
</svg>
