<svg width="29" height="13" viewBox="0 0 29 13" fill="none" xmlns="http://www.w3.org/2000/svg">
<path d="M4.79278 0.941761C5.3148 0.945312 5.82261 1.03764 6.31622 1.21875C6.81338 1.39631 7.26082 1.6875 7.65855 2.09233C8.05628 2.49361 8.37233 3.0316 8.6067 3.70632C8.84108 4.38104 8.95827 5.21555 8.95827 6.20987C8.96182 7.14737 8.86239 7.98544 8.65997 8.72408C8.46111 9.45916 8.17524 10.0806 7.80237 10.5884C7.4295 11.0962 6.98028 11.4833 6.45471 11.7496C5.92915 12.016 5.33788 12.1491 4.68092 12.1491C3.992 12.1491 3.38121 12.0142 2.84854 11.7443C2.31942 11.4744 1.8915 11.1051 1.5648 10.6364C1.2381 10.1676 1.03746 9.63139 0.962882 9.0277H2.90713C3.00656 9.46094 3.20898 9.8054 3.51437 10.0611C3.82332 10.3132 4.21217 10.4393 4.68092 10.4393C5.43731 10.4393 6.0197 10.1108 6.42808 9.45384C6.83646 8.79687 7.04065 7.88423 7.04065 6.71591H6.96608C6.79207 7.02841 6.56658 7.2983 6.28959 7.52557C6.0126 7.74929 5.69832 7.92152 5.34676 8.04226C4.99875 8.163 4.62943 8.22337 4.23881 8.22337C3.5996 8.22337 3.02432 8.07067 2.51295 7.76527C2.00514 7.45987 1.60209 7.04084 1.30379 6.50817C1.00905 5.9755 0.859899 5.36648 0.856348 4.68111C0.856348 3.97088 1.0197 3.33345 1.3464 2.76882C1.67666 2.20064 2.13653 1.7532 2.72602 1.42649C3.31551 1.09624 4.00443 0.934658 4.79278 0.941761ZM4.79811 2.53977C4.41459 2.53977 4.06835 2.63388 3.7594 2.82209C3.454 3.00675 3.21253 3.25888 3.03497 3.57848C2.86096 3.89453 2.77396 4.24787 2.77396 4.63849C2.77751 5.02557 2.86452 5.37713 3.03497 5.69318C3.20898 6.00923 3.44513 6.25959 3.74342 6.44425C4.04527 6.62891 4.38973 6.72124 4.7768 6.72124C5.06444 6.72124 5.33256 6.66619 5.58114 6.55611C5.82971 6.44602 6.04633 6.29332 6.23099 6.09801C6.4192 5.89915 6.5648 5.67365 6.66778 5.42152C6.77432 5.16939 6.82581 4.90305 6.82226 4.62251C6.82226 4.24964 6.73348 3.90518 6.55592 3.58913C6.38192 3.27308 6.14221 3.01918 5.83682 2.82741C5.53497 2.63565 5.18873 2.53977 4.79811 2.53977ZM11.5412 10.6896C11.2181 10.6896 10.9411 10.576 10.7103 10.3487C10.4794 10.1179 10.3658 9.84091 10.3693 9.51776C10.3658 9.19815 10.4794 8.92472 10.7103 8.69744C10.9411 8.47017 11.2181 8.35653 11.5412 8.35653C11.8537 8.35653 12.1254 8.47017 12.3562 8.69744C12.5906 8.92472 12.7095 9.19815 12.7131 9.51776C12.7095 9.73437 12.6527 9.93146 12.5426 10.109C12.4361 10.2866 12.2941 10.4286 12.1165 10.5352C11.9425 10.6381 11.7507 10.6896 11.5412 10.6896ZM11.5412 5.28303C11.2181 5.28303 10.9411 5.16939 10.7103 4.94212C10.4794 4.71129 10.3658 4.4343 10.3693 4.11115C10.3658 3.79155 10.4794 3.51811 10.7103 3.29084C10.9411 3.06001 11.2181 2.9446 11.5412 2.9446C11.8537 2.9446 12.1254 3.06001 12.3562 3.29084C12.5906 3.51811 12.7095 3.79155 12.7131 4.11115C12.7095 4.32422 12.6527 4.51953 12.5426 4.69709C12.4361 4.87464 12.2941 5.01669 12.1165 5.12322C11.9425 5.22976 11.7507 5.28303 11.5412 5.28303ZM14.0856 9.97585V8.40447L18.7145 1.09091H20.0248V3.32812H19.2258L16.1097 8.26598V8.35121H22.571V9.97585H14.0856ZM19.2897 12V9.49645L19.3111 8.79332V1.09091H21.1754V12H19.2897ZM28.1635 1.09091V12H26.1873V3.01385H26.1234L23.5719 4.64382V2.83274L26.2832 1.09091H28.1635Z" fill="white"/>
</svg>
