<svg width="16" height="12" viewBox="0 0 16 12" fill="none" xmlns="http://www.w3.org/2000/svg">
<path fill-rule="evenodd" clip-rule="evenodd" d="M8.00572 2.61648C10.2305 2.61658 12.3701 3.47069 13.9825 5.00228C14.1039 5.12053 14.298 5.11903 14.4175 4.99894L15.5781 3.82861C15.6387 3.76769 15.6725 3.68518 15.6719 3.59934C15.6714 3.51349 15.6367 3.43138 15.5755 3.37118C11.3436 -0.681055 4.66722 -0.681055 0.43531 3.37118C0.374008 3.43133 0.339226 3.51342 0.338661 3.59927C0.338095 3.68511 0.371793 3.76765 0.432298 3.82861L1.59324 4.99894C1.71275 5.11922 1.90697 5.12071 2.02831 5.00228C3.64087 3.47059 5.78077 2.61647 8.00572 2.61648ZM8.00572 6.42406C9.22807 6.42399 10.4068 6.87794 11.3129 7.69772C11.4354 7.81406 11.6285 7.81154 11.7479 7.69203L12.9072 6.5217C12.9682 6.46032 13.0021 6.37704 13.0012 6.2905C13.0004 6.20397 12.9648 6.1214 12.9025 6.06126C10.1434 3.49685 5.87044 3.49685 3.11128 6.06126C3.04895 6.1214 3.01339 6.20401 3.01257 6.29057C3.01176 6.37714 3.04575 6.4604 3.10693 6.5217L4.26586 7.69203C4.38533 7.81154 4.57838 7.81406 4.70093 7.69772C5.6064 6.87848 6.78418 6.42457 8.00572 6.42406ZM10.3279 8.9859C10.3297 9.07268 10.2956 9.15634 10.2336 9.21714L8.22827 11.2391C8.16949 11.2986 8.08935 11.332 8.00572 11.332C7.9221 11.332 7.84196 11.2986 7.78317 11.2391L5.77754 9.21714C5.71558 9.1563 5.68149 9.07261 5.68333 8.98583C5.68517 8.89905 5.72276 8.81687 5.78724 8.7587C7.0679 7.67643 8.94354 7.67643 10.2242 8.7587C10.2886 8.81692 10.3262 8.89912 10.3279 8.9859Z" fill="white"/>
</svg>
